# xmcd
#
# Track frame offsets: 
#        150
#        20107
#        41825
#        63543
#        87073
#        118833
#        134610
#        153678
#        171610
#        194933
#        216400
#        240685
#        303895
#
# Disc length: 4344 seconds
#
# Revision: 0
# Processed by: cddbd v1.5.2PL0 Copyright (c) Steve Scherf et al.
# Submitted via: ExactAudioCopy v0.95b3
#
DISCID=d010f60d
DTITLE=Blue Oyster Cult  - Tyranny And Mutation (Remastered and Expanded
DTITLE=)  FLAC
DYEAR=1900
DGENRE=
TTITLE0=The Red and The Black
TTITLE1=O.D'd On Life Itself
TTITLE2=O.D'd On Life Itself
TTITLE3=Hot Rails To Hell
TTITLE4=7 Screaming Diz-Busters
TTITLE5=Baby Ice Dog
TTITLE6=Wings Wetted Down
TTITLE7=Teen Archer
TTITLE8=Mistress Of The Salmon Salt (Quicklime Girl)
TTITLE9=Cities On Flame With Rock And Roll (Live)
TTITLE10=Studio Version)
TTITLE11=7 Screaming Diz-Busters (Live)
TTITLE12=O.D.'d On Life Itself (Live)
EXTD=
EXTT0=
EXTT1=
EXTT2=
EXTT3=
EXTT4=
EXTT5=
EXTT6=
EXTT7=
EXTT8=
EXTT9=
EXTT10=
EXTT11=
EXTT12=
PLAYORDER=
